<?xml version="1.0" encoding="utf-8"?><svg viewBox="0 0 81 24" xmlns="http://www.w3.org/2000/svg" xmlns:xlink="http://www.w3.org/1999/xlink"><style>:root>svg{display:none}:root>svg:target{display:block}</style><svg viewBox="0 0 44 15" id="arrow-right" xmlns="http://www.w3.org/2000/svg"><path d="M43.707 8.207a1 1 0 000-1.414L37.343.429a1 1 0 10-1.414 1.414L41.586 7.5l-5.657 5.657a1 1 0 001.414 1.414l6.364-6.364zM0 8.5h43v-2H0v2z"/></svg><svg viewBox="0 0 26 16" id="arrow-slider" xmlns="http://www.w3.org/2000/svg"><path d="M.293 7.293a1 1 0 000 1.414l6.364 6.364a1 1 0 001.414-1.414L2.414 8l5.657-5.657A1 1 0 006.657.93L.293 7.293zM26 7H1v2h25V7z"/></svg><svg viewBox="0 0 81 8" id="arrow-swipe" xmlns="http://www.w3.org/2000/svg"><path d="M80.354 4.354a.5.5 0 000-.708L77.172.464a.5.5 0 10-.707.708L79.293 4l-2.829 2.828a.5.5 0 10.708.708l3.182-3.182zM0 4.5h80v-1H0v1z"/></svg><svg viewBox="0 0 24 24" id="fb" xmlns="http://www.w3.org/2000/svg"><g clip-path="url(#da)"><path d="M15.402 21v-6.966h2.333l.349-2.708h-2.682V9.598c0-.784.218-1.319 1.342-1.319h1.434V5.857a19.188 19.188 0 00-2.09-.107c-2.067 0-3.482 1.262-3.482 3.58v1.996h-2.338v2.708h2.338V21H4a1 1 0 01-1-1V4a1 1 0 011-1h16a1 1 0 011 1v16a1 1 0 01-1 1h-4.598z"/></g><defs><clipPath id="da"><path d="M0 0h24v24H0z"/></clipPath></defs></svg><svg viewBox="0 0 24 24" id="inst" xmlns="http://www.w3.org/2000/svg"><g clip-path="url(#ea)"><path d="M12 2c2.717 0 3.056.01 4.122.06 1.065.05 1.79.217 2.428.465.66.254 1.216.598 1.772 1.153.509.5.902 1.105 1.153 1.772.247.637.415 1.363.465 2.428.047 1.066.06 1.405.06 4.122 0 2.717-.01 3.056-.06 4.122-.05 1.065-.218 1.79-.465 2.428a4.883 4.883 0 01-1.153 1.772c-.5.508-1.105.902-1.772 1.153-.637.247-1.363.415-2.428.465-1.066.047-1.405.06-4.122.06-2.717 0-3.056-.01-4.122-.06-1.065-.05-1.79-.218-2.428-.465a4.89 4.89 0 01-1.772-1.153 4.904 4.904 0 01-1.153-1.772c-.248-.637-.415-1.363-.465-2.428C2.013 15.056 2 14.717 2 12c0-2.717.01-3.056.06-4.122.05-1.066.217-1.79.465-2.428a4.88 4.88 0 011.153-1.772A4.897 4.897 0 015.45 2.525c.638-.248 1.362-.415 2.428-.465C8.944 2.013 9.283 2 12 2zm0 5a5 5 0 100 10 5 5 0 000-10zm6.5-.25a1.25 1.25 0 10-2.5 0 1.25 1.25 0 002.5 0zM12 9a3 3 0 110 6 3 3 0 010-6z"/></g><defs><clipPath id="ea"><path d="M0 0h24v24H0z"/></clipPath></defs></svg><svg viewBox="0 0 24 24" id="log-in" xmlns="http://www.w3.org/2000/svg"><path d="M15 3h4a2 2 0 012 2v14a2 2 0 01-2 2h-4m-5-4l5-5-5-5m5 5H3"/></svg><svg viewBox="0 0 65 20" id="logo" xmlns="http://www.w3.org/2000/svg"><path d="M13.739 5.42c0 .039-.062.068-.185.088-.103.02-.164 0-.185-.059-.328-1.139-.883-1.983-1.663-2.533-.78-.55-1.807-.825-3.08-.825H7.7c-.616 0-1.068.128-1.355.383-.288.255-.431.648-.431 1.178v6.363h2.217c1.192 0 2.095-.197 2.711-.59.637-.412.955-.971.955-1.678 0-.04.062-.06.185-.06s.185.02.185.06l-.03 2.68c0 .629.01 1.1.03 1.414l.03 1.561c0 .059-.06.088-.184.088-.123 0-.185-.029-.185-.088 0-.785-.329-1.404-.986-1.856-.636-.47-1.55-.707-2.741-.707H5.915v6.304c0 .609.082 1.06.246 1.355.164.294.472.5.924.618.452.118 1.16.177 2.126.177.04 0 .061.059.061.177s-.02.177-.061.177c-.842 0-1.5-.01-1.972-.03l-3.142-.03-2.31.03c-.411.02-.976.03-1.695.03-.061 0-.092-.06-.092-.177 0-.118.03-.177.092-.177.72 0 1.243-.049 1.571-.147.329-.098.545-.285.647-.56.124-.294.185-.736.185-1.325V3.623c0-.59-.051-1.021-.154-1.296-.103-.275-.308-.462-.616-.56-.308-.118-.78-.176-1.417-.176-.062 0-.092-.06-.092-.177 0-.118.03-.177.092-.177h13.061c.206 0 .308.088.308.265l.062 3.918zm28.826 3.034c.514 0 .77.304.77.913 0 .49-.143.972-.43 1.443a3.274 3.274 0 01-1.11 1.12 2.804 2.804 0 01-1.51.441c-.574 0-1.314-.206-2.217-.618-.37 2.69-1.315 4.742-2.834 6.156-1.5 1.394-3.368 2.091-5.607 2.091-1.396 0-2.649-.314-3.758-.943a7.099 7.099 0 01-2.557-2.562 6.741 6.741 0 01-.924-3.446A6.872 6.872 0 0123.99 8.63a7.545 7.545 0 012.464-1.974c.945-.471 1.9-.707 2.865-.707 1.027 0 1.869.275 2.526.825 1.232-1.316 1.848-2.465 1.848-3.447 0-.373-.061-.657-.184-.854a2.03 2.03 0 00-.524-.589 2.89 2.89 0 01-.37-.412c-.082-.118-.123-.285-.123-.501 0-.295.093-.53.277-.707A.983.983 0 0133.478 0c.452 0 .821.196 1.109.59.287.392.431.912.431 1.56 0 1.1-.431 2.22-1.294 3.358a19.294 19.294 0 01-3.111 3.21c-1.212.983-2.731 2.131-4.56 3.447l-1.786 1.325a6.616 6.616 0 001.263 2.828 6.872 6.872 0 002.28 1.885 6.493 6.493 0 002.834.648c1.869 0 3.42-.628 4.651-1.885 1.253-1.257 2.013-3.063 2.28-5.42l-.585-.294c-.863-.432-1.551-.746-2.064-.943-.514-.216-1.007-.324-1.479-.324-.288 0-.524.06-.709.177-.164.118-.246.265-.246.442 0 .236.082.51.247.825.164.353.246.608.246.765a.798.798 0 01-.185.501c-.123.138-.308.206-.554.206a.927.927 0 01-.617-.206c-.143-.157-.215-.402-.215-.736 0-.51.164-1.002.493-1.473.349-.471.79-.844 1.324-1.12a3.574 3.574 0 011.695-.441c.513 0 1.037.108 1.57.324.555.196 1.233.49 2.034.883.657.334 1.222.6 1.694.796.472.177.904.265 1.294.265.267 0 .483-.05.647-.147.185-.118.277-.256.277-.413 0-.176-.103-.402-.308-.677a2.794 2.794 0 01-.277-.413.878.878 0 01-.093-.412c0-.452.267-.677.801-.677zm-18.298 2.061a10.138 10.138 0 00-.154 1.591c0 .216.02.52.062.913.554-.432 1.13-.864 1.725-1.296 1.869-1.374 3.327-2.513 4.374-3.417-.513-1.04-1.355-1.56-2.526-1.56-.8 0-1.52.362-2.156 1.089-.616.707-1.058 1.6-1.325 2.68zm35.096-1.207c1.725.196 3.09.746 4.097 1.65 1.027.903 1.54 2.022 1.54 3.357a4.514 4.514 0 01-.924 2.769c-.616.825-1.468 1.483-2.557 1.973-1.088.472-2.3.707-3.635.707-.575 0-1.232-.03-1.971-.088-.288-.02-.647-.04-1.079-.059-.41-.02-.872-.03-1.386-.03l-2.248.03c-.411.02-.966.03-1.664.03-.062 0-.092-.06-.092-.177 0-.118.03-.177.092-.177.596 0 1.047-.049 1.355-.147a1.1 1.1 0 00.647-.59c.144-.294.216-.726.216-1.295V3.623c0-.825-.144-1.365-.431-1.62-.288-.275-.873-.412-1.756-.412-.041 0-.062-.06-.062-.177 0-.118.02-.177.062-.177l1.633.03a57.1 57.1 0 002.248.058c.575 0 1.17-.029 1.787-.088.205-.02.513-.04.924-.059.41-.02.77-.03 1.078-.03 1.869 0 3.317.325 4.344.973 1.026.648 1.54 1.59 1.54 2.827 0 .943-.329 1.797-.986 2.563-.636.766-1.56 1.365-2.772 1.797zm-2.588-7.511c-.595 0-1.006.137-1.232.412-.226.255-.339.746-.339 1.473v5.596l1.232.03c1.068 0 1.89-.383 2.465-1.149s.862-1.748.862-2.945c0-1.12-.256-1.964-.77-2.534-.513-.589-1.253-.883-2.218-.883zm.585 17.231c2.69 0 4.036-1.335 4.036-4.006 0-1.512-.38-2.71-1.14-3.593-.76-.884-1.91-1.326-3.45-1.326-.596 0-1.13.02-1.602.059v7.099c0 .648.134 1.11.4 1.384.267.255.853.383 1.756.383z"/></svg><svg viewBox="0 0 24 24" id="search" xmlns="http://www.w3.org/2000/svg"><path d="M13 19a8 8 0 110-16 8 8 0 010 16zM3 21l4.35-4.35"/></svg><svg viewBox="0 0 24 24" id="tw" xmlns="http://www.w3.org/2000/svg"><g clip-path="url(#ia)"><path d="M22.162 5.656a8.383 8.383 0 01-2.402.658A4.196 4.196 0 0021.6 4c-.82.488-1.719.83-2.656 1.015a4.182 4.182 0 00-7.126 3.814 11.874 11.874 0 01-8.62-4.37 4.168 4.168 0 00-.566 2.103c0 1.45.738 2.73 1.86 3.48a4.168 4.168 0 01-1.894-.522v.052a4.185 4.185 0 003.355 4.1 4.208 4.208 0 01-1.89.073A4.185 4.185 0 007.97 16.65a8.393 8.393 0 01-6.191 1.732 11.83 11.83 0 006.41 1.88c7.693 0 11.9-6.373 11.9-11.9 0-.18-.005-.362-.013-.54a8.495 8.495 0 002.087-2.165l-.001-.001z"/></g><defs><clipPath id="ia"><path d="M0 0h24v24H0z"/></clipPath></defs></svg><svg viewBox="0 0 24 24" id="youtube" xmlns="http://www.w3.org/2000/svg"><g clip-path="url(#ja)"><path d="M21.543 6.498C22 8.28 22 12 22 12s0 3.72-.457 5.502c-.254.985-.997 1.76-1.938 2.022C17.896 20 12 20 12 20s-5.893 0-7.605-.476c-.945-.266-1.687-1.04-1.938-2.022C2 15.72 2 12 2 12s0-3.72.457-5.502c.254-.985.997-1.76 1.938-2.022C6.107 4 12 4 12 4s5.896 0 7.605.476c.945.266 1.687 1.04 1.938 2.022zM10 15.5l6-3.5-6-3.5v7z"/></g><defs><clipPath id="ja"><path d="M0 0h24v24H0z"/></clipPath></defs></svg></svg>